<?xml version="1.0" encoding="UTF-8" standalone="no"?>
<!-- Created with Inkscape (http://www.inkscape.org/) -->
<svg xmlns:svg="http://www.w3.org/2000/svg" xmlns="http://www.w3.org/2000/svg" version="1.0" width="220.00017" height="219.99997" id="svg5671">
  <defs id="defs5673"/>
  <g transform="translate(332.85722,-239.50504)" id="layer1">
    <g transform="matrix(0.3261963,0,0,0.3261963,-150.16196,235.49777)" id="g3969">
      <path d="M 114.36336,349.50534 C 114.36336,163.26392 -36.615161,12.284825 -222.85773,12.284825 C -409.09855,12.284825 -560.07766,163.26392 -560.07766,349.50534 C -560.07766,535.74674 -409.09855,686.72526 -222.85773,686.72526 C -36.615161,686.72526 114.36336,535.74674 114.36336,349.50534 L 114.36336,349.50534 z" id="path5613" style="fill:#868686;fill-opacity:1;fill-rule:nonzero;stroke:none;stroke-miterlimit:4"/>
      <path d="M 69.869297,349.50535 C 69.869297,187.83725 -61.189052,56.779515 -222.85775,56.779515 C -384.52524,56.779515 -515.58298,187.83725 -515.58298,349.50535 C -515.58298,511.17405 -384.52524,642.23117 -222.85775,642.23117 C -61.189052,642.23117 69.869297,511.17405 69.869297,349.50535 z" id="path5615" style="fill:#ffffff;fill-rule:nonzero;stroke:none;stroke-miterlimit:4"/>
      <g transform="matrix(1.25,0,0,1.375,-588.76474,-38.318812)" id="g5651" style="fill-rule:nonzero;stroke:none;stroke-miterlimit:4">
        <path d="M 79.880371,294.69189 L 91.005371,294.69189 C 91.419434,298.03955 92.651855,300.52197 94.700684,302.13916 C 96.747559,303.7583 99.708496,304.56689 103.5835,304.56689 C 106.84912,304.56689 109.31787,303.91846 110.99365,302.61963 C 112.66748,301.3208 113.50537,299.40088 113.50537,296.85791 C 113.50537,293.15479 108.73975,290.08838 99.208496,287.65479 C 99.097168,287.62744 98.987793,287.6001 98.878418,287.57275 C 98.628418,287.51807 98.239746,287.42236 97.714356,287.28174 C 92.587402,286.0376 88.929199,284.64111 86.741699,283.09229 C 84.800293,281.70947 83.317871,279.8501 82.29248,277.51221 C 81.26709,275.17627 80.755371,272.4165 80.755371,269.23682 C 80.755371,263.2915 82.57373,258.73486 86.212402,255.56689 C 89.849121,252.40088 95.099121,250.81689 101.9624,250.81689 C 108.38037,250.81689 113.40186,252.5083 117.02686,255.88916 C 120.65186,259.27197 122.56006,264.03955 122.75537,270.19189 L 111.88037,270.19189 C 111.68701,267.21924 110.67334,264.95557 108.8374,263.40088 C 107.00146,261.84619 104.38428,261.06689 100.98975,261.06689 C 98.034668,261.06689 95.757324,261.71143 94.155762,262.99854 C 92.554199,264.2876 91.755371,266.12158 91.755371,268.50439 C 91.755371,271.74463 94.86084,274.16846 101.07373,275.77393 C 102.78467,276.21924 104.10889,276.56494 105.04834,276.81299 C 109.05029,277.94775 111.88623,278.83252 113.55615,279.46924 C 115.22412,280.10596 116.68115,280.81104 117.92334,281.58447 C 120.15771,282.96729 121.83545,284.80127 122.95264,287.08252 C 124.06982,289.36377 124.63037,292.09619 124.63037,295.27588 C 124.63037,301.63916 122.69873,306.56885 118.83936,310.06885 C 114.97803,313.56689 109.53271,315.31689 102.50537,315.31689 C 95.585449,315.31689 90.161621,313.52979 86.231934,309.95361 C 82.302246,306.37744 80.185059,301.28955 79.880371,294.69189 L 79.880371,294.69189 z" id="path5653"/>
        <path d="M 150.55908,313.92432 C 149.56299,313.95361 148.38135,314.00635 147.01416,314.08057 C 145.64502,314.15479 144.76807,314.19189 144.38135,314.19189 C 140.23291,314.19189 137.39307,313.32666 135.85986,311.59229 C 134.32471,309.85791 133.55908,306.43799 133.55908,301.33252 L 133.55908,276.94189 L 128.14307,276.94189 L 128.14307,268.44189 L 133.55908,268.44189 L 133.55908,256.19189 L 144.30908,256.19189 L 144.30908,268.44189 L 150.55908,268.44189 L 150.55908,276.94189 L 144.30908,276.94189 L 144.30908,301.9126 C 144.30908,303.10205 144.54346,303.8833 145.01221,304.25635 C 145.48096,304.63135 146.46143,304.81689 147.95166,304.81689 L 150.55908,304.81689 L 150.55908,313.92432 L 150.55908,313.92432 z" id="path5655"/>
        <path d="M 181.8291,299.81689 L 192.7041,299.81689 C 191.59473,304.58252 189.37793,308.31494 186.05176,311.01611 C 182.72559,313.71533 178.66504,315.06689 173.87012,315.06689 C 167.99316,315.06689 163.3291,312.87549 159.87988,308.49072 C 156.42871,304.10791 154.7041,298.16846 154.7041,290.67236 C 154.7041,283.2876 156.39941,277.46533 159.79199,273.20557 C 163.18262,268.94775 167.81348,266.81689 173.68457,266.81689 C 179.91309,266.81689 184.72363,268.91455 188.11621,273.10986 C 191.50684,277.30518 193.2041,283.28174 193.2041,291.03564 C 193.2041,291.89502 193.19629,292.5376 193.18457,292.96729 C 193.17285,293.39697 193.15332,293.80518 193.12793,294.19189 L 165.9541,294.19189 C 166.12012,297.70752 166.90332,300.35596 168.30176,302.14111 C 169.7002,303.92627 171.72949,304.81689 174.38965,304.81689 C 176.24512,304.81689 177.77637,304.41064 178.98145,303.59814 C 180.18652,302.78564 181.13574,301.52588 181.8291,299.81689 L 181.8291,299.81689 z M 165.9541,286.31689 L 181.9541,286.31689 C 181.87012,283.26221 181.14941,280.93604 179.79199,279.33838 C 178.43457,277.74072 176.48145,276.94189 173.93262,276.94189 C 171.5498,276.94189 169.67871,277.74854 168.32129,279.35986 C 166.96387,280.97119 166.1748,283.28955 165.9541,286.31689 L 165.9541,286.31689 z" id="path5657"/>
        <path d="M 225.41016,299.81689 L 236.28516,299.81689 C 235.17578,304.58252 232.95898,308.31494 229.63281,311.01611 C 226.30664,313.71533 222.24609,315.06689 217.45117,315.06689 C 211.57422,315.06689 206.91016,312.87549 203.46094,308.49072 C 200.00977,304.10791 198.28516,298.16846 198.28516,290.67236 C 198.28516,283.2876 199.98047,277.46533 203.37305,273.20557 C 206.76367,268.94775 211.39453,266.81689 217.26562,266.81689 C 223.49414,266.81689 228.30469,268.91455 231.69727,273.10986 C 235.08789,277.30518 236.78516,283.28174 236.78516,291.03564 C 236.78516,291.89502 236.77734,292.5376 236.76562,292.96729 C 236.75391,293.39697 236.73437,293.80518 236.70898,294.19189 L 209.53516,294.19189 C 209.70117,297.70752 210.48437,300.35596 211.88281,302.14111 C 213.28125,303.92627 215.31055,304.81689 217.9707,304.81689 C 219.82617,304.81689 221.35742,304.41064 222.5625,303.59814 C 223.76758,302.78564 224.7168,301.52588 225.41016,299.81689 L 225.41016,299.81689 z M 209.53516,286.31689 L 225.53516,286.31689 C 225.45117,283.26221 224.73047,280.93604 223.37305,279.33838 C 222.01563,277.74072 220.0625,276.94189 217.51367,276.94189 C 215.13086,276.94189 213.25977,277.74854 211.90234,279.35986 C 210.54492,280.97119 209.75586,283.28955 209.53516,286.31689 L 209.53516,286.31689 z" id="path5659"/>
        <path d="M 244.36621,313.56689 L 244.36621,252.44189 L 255.24121,252.44189 L 255.24121,313.56689 L 244.36621,313.56689 z" id="path5661"/>
      </g>
      <path d="M -369.23812,495.83721 C -270.79231,505.39041 -232.45617,543.83087 -222.85745,642.21788 C -213.25871,543.83087 -174.92259,505.39041 -76.476765,495.83721 C -76.476765,495.83721 -76.476765,495.83721 -76.476765,495.83721 C -174.92259,486.284 -213.25871,447.84354 -222.85745,349.45653 C -232.45617,447.84354 -270.79231,486.284 -369.23812,495.83721 z" id="use3941" style="fill:#0000ff;fill-opacity:1;fill-rule:evenodd;stroke:none;stroke-width:0.04799367;stroke-linecap:butt;stroke-linejoin:miter;stroke-miterlimit:4;stroke-dasharray:none;stroke-opacity:1;display:inline"/>
      <path d="M -222.80507,349.44111 C -124.35926,358.99431 -86.023119,397.43477 -76.424399,495.82178 C -66.825659,397.43477 -28.489539,358.99431 69.956281,349.44111 C 69.956281,349.44111 69.956281,349.44111 69.956281,349.44111 C -28.489539,339.8879 -66.825659,301.44744 -76.424399,203.06043 C -86.023119,301.44744 -124.35926,339.8879 -222.80507,349.44111 z" id="use3943" style="fill:#ffa801;fill-opacity:1;fill-rule:evenodd;stroke:none;stroke-width:0.04799367;stroke-linecap:butt;stroke-linejoin:miter;stroke-miterlimit:4;stroke-dasharray:none;stroke-opacity:1;display:inline"/>
      <path d="M -369.23812,203.07586 C -270.79231,212.62906 -232.45617,251.06952 -222.85745,349.45653 C -213.25871,251.06952 -174.92259,212.62906 -76.476765,203.07586 C -76.476765,203.07586 -76.476765,203.07586 -76.476765,203.07586 C -174.92259,193.52265 -213.25871,155.08219 -222.85745,56.695176 C -232.45617,155.08219 -270.79231,193.52265 -369.23812,203.07586 z" id="use3939" style="fill:#fff001;fill-opacity:1;fill-rule:evenodd;stroke:none;stroke-width:0.04799367;stroke-linecap:butt;stroke-linejoin:miter;stroke-miterlimit:4;stroke-dasharray:none;stroke-opacity:1;display:inline"/>
    </g>
  </g>
</svg>